<svg width="82" height="69" viewBox="0 0 82 69" fill="none" xmlns="http://www.w3.org/2000/svg">
<g clip-path="url(#clip0_1_3)">
<path d="M6.33575 66.96C5.11975 66.96 4.28775 66.608 3.83975 65.904C3.39175 65.2 3.16775 64.432 3.16775 63.6C3.16775 59.632 3.55175 55.088 4.31975 49.968C5.15175 44.848 6.14375 39.76 7.29575 34.704C8.31975 30.416 9.43975 26.416 10.6557 22.704C11.9357 18.992 13.0557 15.952 14.0157 13.584C15.4237 10.256 17.0237 7.728 18.8158 6C20.6718 4.208 22.8158 3.31199 25.2478 3.31199C27.0398 3.31199 28.6397 3.92 30.0477 5.136C31.4557 6.288 32.2878 8.4 32.5438 11.472C32.9277 15.184 33.3757 18.928 33.8878 22.704C34.3997 26.48 34.9757 29.936 35.6158 33.072C36.2558 36.144 36.9278 38.512 37.6318 40.176C38.2078 41.648 39.0398 42.384 40.1278 42.384C41.3438 42.384 42.3997 41.616 43.2957 40.08C44.1278 38.672 45.0238 36.752 45.9837 34.32C46.9437 31.888 47.8717 29.328 48.7678 26.64C49.7278 23.888 50.5598 21.392 51.2638 19.152C52.0958 16.72 53.0238 14.288 54.0477 11.856C55.1357 9.36 56.5118 7.312 58.1758 5.712C59.8398 4.048 61.9198 3.216 64.4158 3.216C66.7198 3.216 68.3518 4.016 69.3118 5.616C70.3358 7.152 70.8477 9.616 70.8477 13.008C70.8477 15.632 70.7518 18.384 70.5598 21.264C70.4958 22.928 70.3998 24.656 70.2718 26.448C70.2078 28.176 70.1758 29.968 70.1758 31.824C70.1758 34.704 70.3038 37.744 70.5598 40.944C70.8798 44.144 71.4558 47.152 72.2878 49.968C73.1838 52.784 74.4958 55.152 76.2238 57.072C76.7358 57.52 77.1838 58.032 77.5678 58.608C78.0158 59.184 78.2398 59.824 78.2398 60.528C78.2398 62.128 77.3758 63.6 75.6478 64.944C73.9838 66.224 72.0638 66.864 69.8878 66.864C67.9037 66.864 66.4317 66.224 65.4718 64.944C64.5118 63.664 63.7438 61.936 63.1678 59.76C62.5278 57.072 62.0798 54.192 61.8238 51.12C61.5678 48.048 61.4398 45.072 61.4398 42.192C61.4398 37.584 61.5998 33.36 61.9198 29.52C62.3038 25.616 62.4958 22.736 62.4958 20.88C62.4958 19.856 62.3998 19.12 62.2078 18.672C62.0158 18.16 61.5358 17.904 60.7678 17.904C59.8718 17.904 59.1038 18.32 58.4637 19.152C57.8877 19.92 57.4077 21.008 57.0238 22.416C56.1917 25.104 55.2638 27.984 54.2398 31.056C53.2157 34.128 52.1278 37.136 50.9758 40.08C49.8878 43.024 48.7038 45.648 47.4237 47.952C45.9517 50.64 44.3518 52.464 42.6237 53.424C40.9598 54.32 39.2638 54.768 37.5357 54.768C34.8477 54.768 32.7998 53.936 31.3918 52.272C30.0477 50.544 29.0557 48.656 28.4157 46.608C27.5837 43.856 26.8157 40.272 26.1118 35.856C25.4078 31.376 24.8958 26.352 24.5758 20.784C24.4478 18.416 23.6797 17.232 22.2717 17.232C20.7357 17.232 19.5197 18.384 18.6237 20.688C17.8557 22.992 17.1197 25.712 16.4157 28.848C15.7117 31.92 15.1357 35.152 14.6877 38.544C14.3037 41.872 14.1117 45.168 14.1117 48.432C14.1117 51.184 14.2077 53.584 14.3997 55.632C14.6557 57.68 14.7837 59.6 14.7837 61.392C14.7837 62.672 14.2717 63.728 13.2477 64.56C12.2877 65.392 11.1357 66 9.79175 66.384C8.44775 66.768 7.29575 66.96 6.33575 66.96ZM134.932 67.056C132.948 67.056 131.252 66.224 129.844 64.56C128.5 62.832 127.188 60.016 125.908 56.112C125.268 54.192 124.724 52.336 124.276 50.544C123.892 48.688 123.604 46.896 123.412 45.168C122.58 46.448 121.812 47.312 121.108 47.76C120.468 48.144 119.508 48.336 118.228 48.336C115.092 48.336 111.764 48.304 108.244 48.24C104.724 48.112 101.588 48.016 98.8355 47.952C98.7075 49.104 98.5795 50.288 98.4515 51.504C98.3875 52.656 98.3555 53.808 98.3555 54.96C98.3555 55.984 98.3875 57.008 98.4515 58.032C98.5795 59.056 98.6755 60.048 98.7395 61.008C98.9315 62.8 98.2275 64.24 96.6275 65.328C95.0275 66.416 93.0435 66.96 90.6755 66.96C88.6275 66.96 87.6035 66.064 87.6035 64.272C87.6035 63.184 87.8915 61.552 88.4675 59.376C88.7875 57.904 89.0435 56.656 89.2355 55.632C89.4275 54.544 89.5235 53.68 89.5235 53.04C89.5235 51.248 88.9795 50.032 87.8915 49.392C86.9955 48.88 86.5475 48.208 86.5475 47.376C86.5475 46.608 86.7075 45.68 87.0275 44.592C87.4115 43.504 87.8915 42.512 88.4675 41.616C89.0435 40.656 89.5875 39.984 90.0995 39.6C90.5475 39.344 91.0915 39.12 91.7315 38.928C92.3715 38.736 93.1715 38.608 94.1315 38.544C96.6275 31.376 99.4115 25.2 102.484 20.016C105.62 14.768 108.948 10.736 112.468 7.92C115.988 5.04 119.572 3.6 123.22 3.6C125.46 3.6 127.092 4.368 128.116 5.904C129.14 7.376 129.652 9.872 129.652 13.392V17.712C129.652 24.176 130.132 30.128 131.092 35.568C132.052 41.008 133.236 45.424 134.644 48.816C136.052 52.4 138.004 55.344 140.5 57.648C141.268 58.288 141.78 58.864 142.036 59.376C142.292 59.824 142.42 60.304 142.42 60.816C142.42 61.776 142.036 62.736 141.268 63.696C140.564 64.656 139.636 65.456 138.484 66.096C137.332 66.736 136.148 67.056 134.932 67.056ZM101.716 37.968C104.852 37.84 107.604 37.744 109.972 37.68C112.34 37.552 114.324 37.488 115.924 37.488H122.644C122.516 35.696 122.388 33.808 122.26 31.824C122.196 29.84 122.164 27.76 122.164 25.584V20.016C122.164 18.16 121.94 16.944 121.492 16.368C121.108 15.728 120.34 15.408 119.188 15.408C116.052 15.408 112.916 17.456 109.78 21.552C106.644 25.648 103.956 31.12 101.716 37.968Z" fill="#18DCC7"/>
</g>
<defs>
<clipPath id="clip0_1_3">
<rect width="192" height="92" fill="white" transform="translate(-25 -11)"/>
</clipPath>
</defs>
</svg>
